<?xml version="1.0" standalone="no"?>
<!DOCTYPE svg PUBLIC "-//W3C//DTD SVG 20010904//EN"
 "http://www.w3.org/TR/2001/REC-SVG-20010904/DTD/svg10.dtd">
<svg version="1.0" xmlns="http://www.w3.org/2000/svg"
 width="640.000000pt" height="640.000000pt" viewBox="0 0 640.000000 640.000000"
 preserveAspectRatio="xMidYMid meet">

<g transform="translate(0.000000,640.000000) scale(0.100000,-0.100000)"
fill="#000000" stroke="none">
<path d="M3804 5176 c-22 -7 -123 -60 -225 -118 -279 -159 -459 -262 -509
-290 -25 -14 -83 -48 -130 -75 -70 -41 -291 -167 -440 -250 -19 -11 -73 -43
-120 -70 -70 -41 -239 -137 -440 -251 -19 -10 -78 -44 -130 -74 -80 -47 -304
-175 -430 -246 -337 -191 -364 -211 -412 -311 -24 -51 -30 -77 -31 -135 -1
-91 11 -125 96 -271 38 -66 78 -133 87 -150 10 -16 73 -124 140 -240 68 -115
170 -291 228 -390 57 -99 137 -234 176 -300 l71 -120 5 -210 c5 -201 6 -212
31 -266 37 -79 90 -133 167 -171 l67 -33 1595 0 c1521 0 1597 1 1648 18 70 25
153 102 189 175 l28 57 0 990 0 990 -26 56 c-34 72 -96 134 -168 167 -47 23
-74 28 -171 32 l-115 5 -78 135 c-44 74 -134 230 -202 345 -67 116 -171 293
-230 395 -60 102 -113 194 -119 205 -71 128 -174 289 -203 319 -61 60 -135 91
-228 93 -46 2 -97 -3 -121 -11z m209 -91 c19 -8 48 -26 65 -40 40 -33 97 -124
86 -135 -5 -5 -369 -214 -809 -465 -440 -251 -817 -468 -837 -481 -43 -27 -51
-66 -19 -84 24 -12 33 -9 151 61 52 30 174 100 270 154 96 54 195 110 220 125
25 15 146 85 270 155 124 70 250 142 280 160 165 97 518 295 526 295 8 -1 652
-1099 662 -1129 3 -8 -438 -12 -1440 -13 l-1443 -3 -50 -25 c-58 -28 -126 -88
-156 -136 -48 -78 -49 -96 -49 -803 0 -396 -4 -661 -9 -655 -5 5 -43 68 -84
139 -41 72 -197 339 -345 593 -293 501 -295 507 -273 608 26 116 -45 70 1356
870 1418 810 1425 814 1469 825 40 10 115 3 159 -16z m1226 -1510 c62 -31 115
-92 132 -153 11 -38 14 -221 14 -988 l0 -940 -30 -59 c-34 -66 -94 -118 -154
-135 -26 -7 -550 -9 -1612 -8 l-1574 3 -45 24 c-48 25 -91 67 -118 116 -16 27
-17 117 -20 998 -2 926 -2 970 16 1010 28 62 66 102 124 131 l52 26 1583 0
1584 0 48 -25z"/>
<path d="M2212 3378 c-8 -8 -12 -64 -12 -185 0 -160 1 -173 19 -183 13 -7 465
-10 1390 -10 1358 0 1371 0 1391 20 18 18 20 33 20 176 0 88 -4 164 -10 175
-11 19 -37 19 -1398 19 -1066 0 -1391 -3 -1400 -12z m2718 -183 l0 -105 -1322
2 -1323 3 -3 103 -3 102 1326 0 1325 0 0 -105z"/>
<path d="M2327 2713 c-12 -11 -8 -50 7 -62 10 -8 304 -10 1096 -9 1019 3 1083
4 1094 21 8 12 8 22 0 35 -11 16 -76 17 -1101 20 -599 1 -1093 -1 -1096 -5z"/>
<path d="M2330 2436 c-6 -8 -10 -25 -8 -38 2 -18 11 -24 38 -28 19 -3 512 -3
1094 0 994 5 1059 6 1070 23 8 12 8 22 0 35 -11 16 -75 17 -1096 20 -938 2
-1087 0 -1098 -12z"/>
<path d="M4307 2056 c-228 -85 -248 -385 -33 -499 55 -29 184 -31 235 -4 32
18 34 18 92 -4 233 -86 451 138 351 363 -57 129 -221 193 -351 138 -51 -23
-53 -23 -89 -5 -49 23 -156 29 -205 11z m192 -104 c39 -28 64 -28 109 3 28 19
49 25 92 25 105 0 181 -68 187 -168 5 -69 -14 -111 -70 -156 -32 -26 -49 -31
-105 -34 -59 -3 -72 -1 -105 22 -46 32 -69 33 -108 4 -21 -16 -47 -23 -92 -25
-73 -4 -127 21 -164 76 -60 89 -32 204 62 259 53 30 149 27 194 -6z"/>
<path d="M2332 1728 c-18 -18 -14 -56 7 -68 30 -15 723 -14 739 2 15 15 15 51
0 66 -17 17 -729 17 -746 0z"/>
</g>
</svg>
