<?xml version="1.0" standalone="no"?>
<!DOCTYPE svg PUBLIC "-//W3C//DTD SVG 20010904//EN"
 "http://www.w3.org/TR/2001/REC-SVG-20010904/DTD/svg10.dtd">
<svg version="1.0" xmlns="http://www.w3.org/2000/svg"
 width="612.000000pt" height="612.000000pt" viewBox="0 0 612.000000 612.000000"
 preserveAspectRatio="xMidYMid meet">

<g transform="translate(0.000000,612.000000) scale(0.100000,-0.100000)"
fill="#000000" stroke="none">
<path d="M3165 4210 c-73 -17 -112 -50 -144 -120 -33 -72 -23 -152 24 -209 31
-36 31 -38 -4 -46 -21 -4 -87 11 -232 54 -111 34 -210 61 -220 61 -31 0 -70
-23 -84 -49 -7 -15 -45 -133 -84 -265 -49 -163 -70 -247 -66 -266 12 -56 44
-70 379 -165 l58 -16 -6 -37 c-3 -20 -6 -54 -6 -74 0 -36 -1 -38 -34 -38 -26
0 -41 -8 -61 -32 -26 -30 -27 -37 -23 -105 l5 -73 -87 0 c-98 0 -185 -22 -263
-67 -110 -64 -210 -200 -237 -323 -13 -59 -11 -223 3 -237 5 -4 47 -10 94 -13
l86 -5 11 -46 c48 -188 247 -285 421 -205 95 43 151 109 175 208 l12 46 391 5
c433 4 446 6 582 73 39 19 106 65 150 104 77 67 160 119 172 106 3 -3 -11 -24
-32 -47 -20 -23 -49 -66 -62 -96 -22 -48 -25 -65 -21 -137 5 -92 25 -139 84
-200 180 -185 501 -67 522 191 9 113 -38 211 -134 279 l-48 34 90 0 c77 0 93
3 112 20 29 27 28 45 -7 105 -56 97 -160 171 -281 199 -34 8 -72 22 -86 30
-19 13 -104 160 -104 181 0 3 16 3 35 -1 62 -11 65 -3 65 187 0 155 -2 169
-19 178 -46 25 -161 -49 -177 -114 -3 -14 -9 -25 -13 -25 -3 0 -49 86 -101
192 -103 208 -143 264 -195 274 -60 11 -89 -5 -226 -121 -74 -63 -137 -115
-141 -115 -4 0 -28 35 -54 78 -26 42 -67 108 -91 145 -24 38 -44 73 -46 79 -1
6 12 15 29 22 105 39 158 139 129 248 -13 51 -59 109 -105 132 -34 18 -98 25
-135 16z m142 -66 c79 -60 92 -170 30 -241 -80 -91 -216 -80 -274 22 -89 158
101 328 244 219z m-507 -290 l188 -56 -19 -32 c-10 -17 -19 -39 -19 -49 0 -10
-6 -20 -13 -23 -7 -2 -80 15 -163 40 -82 24 -175 51 -206 60 l-57 16 11 33
c15 44 37 67 65 67 13 0 109 -25 213 -56z m385 -63 c19 -12 63 -73 124 -172
77 -127 91 -156 82 -171 -6 -10 -11 -22 -11 -28 0 -26 38 -2 151 95 l122 105
18 -29 c9 -16 28 -36 40 -45 15 -10 20 -19 14 -25 -63 -62 -294 -251 -307
-251 -36 0 -52 19 -165 204 -120 197 -140 226 -155 226 -19 0 -5 -37 46 -120
l53 -89 -50 -175 -51 -176 -31 0 c-17 0 -40 -6 -51 -14 -18 -14 -18 -15 -1
-21 10 -4 131 6 270 23 209 25 255 28 272 18 24 -16 315 -486 315 -509 0 -25
-36 -57 -63 -57 -33 0 -50 21 -177 230 -62 102 -120 192 -129 201 -15 16 -33
15 -256 -12 -132 -16 -262 -29 -288 -29 -86 0 -137 46 -137 125 0 34 162 620
182 658 27 52 127 73 183 38z m-531 -60 c72 -22 163 -49 203 -61 l72 -20 -20
-73 c-11 -39 -36 -126 -55 -192 -20 -66 -38 -128 -40 -137 -3 -10 -12 -18 -20
-18 -18 0 -353 99 -376 111 -29 16 -31 54 -8 131 67 224 92 298 102 298 7 0
71 -18 142 -39z m1129 -52 c42 -23 49 -57 17 -89 -24 -24 -57 -26 -82 -3 -24
21 -23 58 2 83 23 23 33 24 63 9z m318 -514 c83 -165 160 -310 172 -322 20
-23 54 -37 158 -67 76 -22 156 -80 203 -148 61 -88 61 -88 -177 -88 -282 0
-331 -14 -467 -135 -88 -78 -205 -139 -305 -160 -58 -12 -201 -15 -822 -15
l-752 0 -6 54 c-10 77 16 192 59 270 39 69 125 155 189 187 96 49 114 52 469
56 l337 5 5 -24 c3 -13 7 -40 10 -61 14 -105 98 -217 197 -262 58 -26 67 -27
187 -23 165 6 195 19 318 139 111 109 136 157 136 263 l1 70 -143 284 -142
283 60 54 c33 31 63 67 67 82 8 33 7 34 246 -442z m-813 181 c57 -93 93 -122
141 -111 15 3 80 51 145 106 65 56 122 97 126 92 4 -4 68 -126 141 -270 133
-261 134 -263 134 -330 0 -54 -6 -79 -25 -117 -14 -27 -30 -51 -35 -52 -6 -2
-34 38 -64 89 -139 236 -256 416 -278 426 -34 15 -74 14 -260 -10 -91 -11
-166 -19 -169 -17 -2 2 14 67 36 144 22 76 40 140 40 142 0 13 24 -19 68 -92z
m982 -126 c0 -142 -1 -150 -20 -150 -29 0 -87 56 -101 97 -24 73 8 154 73 186
18 9 36 17 41 17 4 0 7 -67 7 -150z m-1437 -245 c22 -19 56 -38 75 -41 19 -4
119 3 221 15 103 11 194 21 204 21 26 0 24 -93 -3 -120 -19 -19 -33 -20 -305
-20 l-286 0 -24 25 c-52 51 -18 155 50 155 16 0 43 -14 68 -35z m772 -196 c92
-150 138 -215 158 -226 29 -15 29 -15 8 -29 -64 -46 -114 -58 -227 -59 -103 0
-114 2 -169 30 -94 48 -161 152 -168 260 l-2 40 67 5 c91 7 111 26 116 114 5
69 3 68 72 74 9 1 63 -77 145 -209z m731 -316 c6 -31 3 -39 -16 -55 -12 -10
-28 -18 -35 -18 -21 0 -52 33 -63 67 -12 38 -8 41 60 42 47 1 47 1 54 -36z
m134 -4 c101 -45 160 -138 160 -250 0 -138 -100 -249 -239 -266 -163 -19 -319
136 -297 296 7 53 47 140 76 166 19 17 20 16 46 -14 14 -17 34 -31 44 -31 10
0 26 -7 35 -16 15 -15 14 -19 -11 -45 -20 -20 -28 -42 -32 -78 -4 -47 -2 -53
31 -86 30 -30 42 -35 81 -35 88 0 139 83 101 163 -17 36 -65 67 -103 67 -28 0
-33 30 -8 58 12 13 20 37 20 57 0 31 3 35 26 35 14 0 45 -10 70 -21z m-53
-191 c41 -38 28 -105 -26 -128 -37 -15 -80 3 -99 42 -11 23 -10 33 2 63 17 41
31 39 41 -4 3 -16 13 -35 21 -41 20 -18 29 11 15 51 -14 40 -14 39 6 39 9 0
27 -10 40 -22z m-1947 -108 c16 -38 56 -60 107 -60 45 0 77 20 98 61 15 28 18
29 90 29 84 0 84 0 59 -75 -30 -86 -126 -160 -223 -172 -115 -13 -239 63 -281
173 -11 30 -20 59 -20 64 0 6 35 10 79 10 78 0 79 0 91 -30z m170 15 c0 -15
-48 -45 -73 -45 -17 0 -67 38 -67 51 0 5 32 9 70 9 55 0 70 -3 70 -15z"/>
<path d="M2443 2612 c-13 -2 -23 -10 -23 -18 0 -12 32 -14 213 -12 272 4 286
21 22 28 -104 3 -200 4 -212 2z"/>
<path d="M1694 4029 c-3 -6 0 -15 7 -20 8 -5 158 -9 334 -9 176 0 326 4 334 9
41 26 -8 31 -334 31 -234 0 -336 -3 -341 -11z"/>
<path d="M1530 3680 c0 -20 7 -20 340 -20 333 0 340 0 340 20 0 20 -7 20 -340
20 -333 0 -340 0 -340 -20z"/>
<path d="M1415 3349 c-4 -6 -3 -15 2 -20 5 -5 148 -8 344 -7 289 3 334 5 334
18 0 13 -45 15 -337 18 -237 1 -339 -1 -343 -9z"/>
</g>
</svg>
