<?xml version="1.0" standalone="no"?>
<!DOCTYPE svg PUBLIC "-//W3C//DTD SVG 20010904//EN"
 "http://www.w3.org/TR/2001/REC-SVG-20010904/DTD/svg10.dtd">
<svg version="1.0" xmlns="http://www.w3.org/2000/svg"
 width="920.000000pt" height="920.000000pt" viewBox="0 0 920.000000 920.000000"
 preserveAspectRatio="xMidYMid meet">

<g transform="translate(0.000000,920.000000) scale(0.100000,-0.100000)"
fill="#000000" stroke="none">
<path d="M5905 7338 c-80 -47 -171 -100 -232 -134 -23 -13 -92 -53 -153 -89
-61 -36 -113 -65 -115 -65 -4 0 -141 -80 -258 -151 -27 -16 -50 -29 -53 -29
-2 0 -23 -11 -45 -26 -22 -14 -55 -33 -72 -43 -84 -48 -586 -337 -692 -399
-106 -61 -117 -67 -325 -187 -216 -124 -305 -176 -355 -205 -16 -10 -73 -42
-125 -72 -52 -30 -151 -87 -219 -126 -69 -40 -126 -72 -128 -72 -1 0 -27 -16
-57 -35 -30 -19 -58 -35 -61 -35 -3 0 -22 -11 -43 -24 -20 -13 -82 -49 -137
-81 -55 -32 -129 -75 -165 -95 -149 -86 -518 -299 -550 -317 -72 -41 -110 -65
-110 -70 0 -7 47 -90 256 -450 108 -186 206 -356 219 -378 12 -22 39 -69 60
-105 21 -36 49 -85 63 -110 14 -25 33 -57 43 -72 11 -14 19 -29 19 -32 0 -3
21 -40 46 -83 26 -43 58 -98 72 -123 47 -83 59 -105 106 -183 25 -43 46 -80
46 -83 0 -3 8 -18 19 -32 10 -15 30 -48 45 -74 14 -27 38 -69 52 -95 15 -27
34 -59 43 -73 9 -14 23 -38 31 -54 8 -16 20 -31 27 -33 11 -4 132 62 245 133
21 13 40 24 43 24 3 0 24 11 46 26 44 28 44 27 244 141 129 74 224 129 300
173 17 10 58 34 93 54 34 20 90 52 125 72 34 20 76 44 92 54 17 10 80 46 140
80 61 35 124 71 140 80 103 59 156 90 201 117 27 17 70 41 95 55 68 39 217
125 404 233 94 54 184 106 200 115 17 10 81 47 143 84 62 36 132 77 155 90 99
55 138 78 442 253 176 102 352 203 390 226 39 22 87 51 107 64 21 12 40 23 43
23 3 0 24 12 48 27 23 14 67 40 97 57 30 17 83 47 117 66 35 19 63 40 63 47 0
14 -37 83 -121 225 -32 55 -59 102 -59 104 0 2 -11 21 -24 42 -24 38 -119 201
-154 262 -10 19 -63 112 -117 205 -54 94 -131 226 -170 295 -40 69 -86 148
-102 176 -17 27 -41 70 -55 95 -14 24 -42 73 -63 109 -21 36 -48 84 -62 108
-13 23 -54 93 -90 155 -36 62 -77 133 -92 160 -14 26 -30 47 -36 47 -5 0 -41
-19 -80 -42z m-1221 -1208 c165 -19 346 -92 442 -180 22 -20 47 -41 55 -46 15
-10 93 -101 126 -149 109 -157 161 -374 137 -574 -41 -345 -261 -611 -596
-723 -88 -29 -101 -31 -253 -31 -148 -1 -166 1 -245 27 -194 63 -309 145 -459
327 -30 37 -90 161 -114 236 -48 151 -53 262 -22 438 9 56 50 172 73 214 15
25 33 57 40 71 7 14 33 48 57 75 25 28 45 52 45 56 0 9 135 116 171 136 158
88 235 111 437 132 7 0 55 -4 106 -9z"/>
<path d="M4308 5791 c-32 -20 -58 -39 -58 -43 0 -4 14 -30 30 -58 17 -28 30
-56 30 -62 0 -6 -16 -28 -35 -49 -98 -108 -105 -242 -19 -356 62 -81 156 -103
354 -78 140 17 162 15 198 -18 28 -26 28 -66 0 -103 -29 -37 -43 -48 -98 -75
-25 -11 -53 -25 -62 -30 -10 -5 -49 -14 -88 -20 l-71 -12 7 -41 c3 -23 10 -49
15 -58 5 -9 9 -25 9 -36 0 -50 70 -49 202 4 68 28 60 32 106 -48 15 -27 30
-48 33 -48 6 0 117 65 125 73 3 2 -11 30 -31 62 -19 33 -35 63 -35 68 0 6 18
30 41 54 58 63 82 123 81 204 0 75 -20 122 -74 181 -60 67 -99 81 -216 80 -57
0 -141 -6 -187 -13 -96 -14 -135 -5 -154 37 -31 70 78 158 232 188 40 7 57 15
56 26 -1 32 -37 155 -45 155 -36 -1 -109 -19 -143 -35 -59 -29 -75 -26 -96 20
-31 69 -42 72 -107 31z"/>
<path d="M6752 4905 c-39 -25 -74 -45 -76 -45 -2 0 -52 -29 -111 -65 -59 -36
-109 -65 -111 -65 -2 0 -23 -12 -47 -27 -35 -22 -161 -97 -342 -203 -16 -10
-93 -55 -170 -100 -77 -46 -167 -99 -200 -117 -33 -19 -64 -38 -70 -43 -5 -5
-39 -25 -75 -45 -103 -59 -119 -69 -225 -132 -55 -33 -116 -69 -135 -80 -19
-11 -80 -47 -135 -80 -55 -33 -156 -92 -225 -133 -158 -93 -227 -133 -315
-186 -38 -23 -126 -74 -195 -114 -69 -40 -149 -88 -177 -106 -29 -19 -55 -34
-58 -34 -3 0 -31 -16 -61 -35 -30 -19 -56 -35 -59 -35 -2 0 -25 -13 -52 -29
-111 -68 -411 -246 -453 -269 -25 -14 -57 -33 -72 -43 -14 -11 -29 -19 -32
-19 -3 0 -30 -16 -60 -35 -30 -19 -58 -35 -61 -35 -3 0 -29 -16 -58 -35 -28
-19 -56 -35 -62 -35 -6 0 -42 55 -80 122 -39 67 -79 138 -91 157 -11 20 -33
59 -48 86 -16 28 -40 70 -54 95 -13 25 -33 57 -43 72 -11 14 -19 28 -19 31 0
2 -25 46 -55 96 -30 51 -55 94 -55 96 0 3 -16 29 -35 59 -19 30 -35 57 -35 60
0 3 -29 55 -65 116 -36 61 -76 130 -89 153 -13 23 -40 71 -61 107 -21 36 -46
79 -56 97 -10 17 -28 49 -41 70 -13 21 -29 49 -36 63 -7 14 -21 36 -31 49
l-19 24 -68 -43 c-38 -23 -71 -44 -73 -46 -3 -3 4 -21 15 -42 30 -55 72 -130
88 -155 7 -12 27 -47 43 -77 17 -30 71 -126 121 -214 51 -87 92 -160 92 -163
0 -2 16 -29 35 -59 19 -30 35 -57 35 -60 0 -3 8 -18 18 -32 11 -15 35 -56 54
-92 19 -36 72 -130 118 -210 109 -192 113 -199 180 -315 79 -138 100 -174 125
-220 67 -121 117 -205 123 -209 5 -3 36 13 70 35 35 21 64 39 66 39 2 0 63 36
136 80 73 44 135 80 137 80 2 0 20 11 41 24 35 22 415 249 457 272 11 6 67 39
125 74 112 67 132 78 225 132 33 19 102 60 154 91 51 32 95 57 97 57 2 0 35
20 74 45 39 25 72 45 75 45 2 0 29 16 59 35 30 19 57 35 60 35 3 0 30 16 60
35 30 19 60 35 66 35 5 0 10 5 10 10 0 6 5 10 10 10 6 0 27 11 48 24 20 13 93
56 162 96 69 40 160 95 203 121 43 27 80 49 83 49 2 0 33 17 67 38 130 80 169
102 178 102 5 0 9 5 9 10 0 6 4 10 10 10 5 0 62 32 126 70 64 39 117 70 119
70 1 0 85 50 185 110 101 61 185 110 187 110 2 0 22 12 46 27 23 15 51 32 62
37 11 6 76 45 145 86 143 85 150 90 253 149 43 25 77 50 77 55 -1 22 -139 271
-152 274 -7 1 -46 -18 -86 -43z"/>
<path d="M6753 4245 c-29 -19 -55 -35 -58 -35 -3 0 -30 -15 -60 -34 -53 -35
-714 -434 -770 -466 -16 -9 -63 -38 -103 -63 -40 -26 -74 -47 -76 -47 -2 0
-64 -37 -137 -81 -74 -45 -148 -90 -166 -100 -17 -10 -50 -30 -73 -44 -23 -14
-56 -34 -73 -44 -18 -10 -93 -56 -167 -101 -74 -46 -151 -92 -170 -103 -19
-11 -73 -44 -120 -72 -74 -46 -286 -173 -375 -225 -16 -10 -73 -44 -125 -76
-244 -149 -509 -309 -550 -331 -25 -14 -49 -29 -55 -33 -35 -27 -579 -350
-589 -350 -7 0 -32 35 -57 77 -24 42 -55 95 -69 118 -89 146 -176 291 -180
300 -10 20 -64 111 -100 170 -42 68 -252 421 -279 469 -27 48 -110 185 -148
243 -18 29 -33 56 -33 60 0 5 -10 21 -23 36 l-22 28 -70 -50 c-38 -28 -83 -61
-99 -74 l-29 -23 50 -75 c27 -41 128 -195 223 -344 95 -148 194 -301 220 -340
58 -85 96 -144 380 -585 122 -190 224 -347 227 -350 2 -2 19 4 36 14 18 10 46
27 64 37 17 10 50 29 72 43 22 15 43 26 45 26 3 0 37 20 75 45 38 25 72 45 74
45 2 0 64 36 136 80 73 44 135 80 138 80 3 0 18 9 33 20 15 11 54 35 87 54 32
18 110 65 173 103 63 38 273 163 465 278 193 114 378 225 413 246 35 22 65 39
67 39 3 0 36 20 75 45 39 25 72 45 75 45 2 0 39 22 82 49 43 26 202 122 353
211 151 90 399 238 550 329 151 90 284 169 295 175 23 13 618 368 624 373 9 7
-184 243 -198 243 -3 0 -30 -16 -58 -35z"/>
</g>
</svg>
