<?xml version="1.0" standalone="no"?>
<!DOCTYPE svg PUBLIC "-//W3C//DTD SVG 20010904//EN"
 "http://www.w3.org/TR/2001/REC-SVG-20010904/DTD/svg10.dtd">
<svg version="1.0" xmlns="http://www.w3.org/2000/svg"
 width="360.000000pt" height="360.000000pt" viewBox="0 0 360.000000 360.000000"
 preserveAspectRatio="xMidYMid meet">

<g transform="translate(0.000000,360.000000) scale(0.100000,-0.100000)"
fill="#000000" stroke="none">
<path d="M1675 3587 c-28 -7 -82 -28 -120 -46 -64 -30 -101 -63 -446 -404
-207 -205 -377 -375 -378 -379 0 -5 35 -8 78 -8 98 0 187 -26 267 -79 34 -22
185 -166 354 -335 310 -311 327 -324 381 -296 13 7 161 148 329 315 178 176
325 314 353 330 73 42 162 65 270 72 l99 6 -354 354 c-194 195 -378 370 -408
391 -85 57 -170 83 -280 88 -58 2 -115 -1 -145 -9z"/>
<path d="M333 2358 c-219 -222 -244 -250 -276 -318 -80 -168 -73 -357 19 -517
16 -27 129 -150 258 -281 l231 -233 160 3 c234 4 207 -12 594 372 298 296 319
315 370 330 69 20 103 20 172 0 51 -15 72 -34 369 -329 238 -236 328 -320 370
-341 54 -28 59 -29 240 -32 l185 -3 236 238 c130 131 248 258 262 283 67 119
89 294 51 420 -36 123 -66 163 -314 413 l-235 239 -175 -4 c-259 -5 -236 9
-620 -373 -202 -200 -320 -311 -350 -326 -62 -31 -148 -31 -210 0 -30 15 -148
125 -345 321 -165 163 -320 309 -345 323 -72 41 -150 57 -285 57 l-121 0 -241
-242z"/>
<path d="M1431 1267 c-168 -167 -329 -317 -357 -335 -73 -46 -156 -72 -257
-80 l-88 -7 373 -370 c326 -324 381 -375 438 -403 173 -85 362 -82 523 6 56
31 128 98 432 402 201 200 365 365 365 366 0 1 -51 4 -112 6 -125 5 -193 27
-285 89 -26 18 -183 167 -349 331 -289 287 -302 298 -339 298 -37 0 -50 -11
-344 -303z"/>
</g>
</svg>
